<?xml version="1.0" standalone="no"?>
<!DOCTYPE svg PUBLIC "-//W3C//DTD SVG 20010904//EN"
 "http://www.w3.org/TR/2001/REC-SVG-20010904/DTD/svg10.dtd">
<svg version="1.0" xmlns="http://www.w3.org/2000/svg"
 width="476.000000pt" height="476.000000pt" viewBox="0 0 476.000000 476.000000"
 preserveAspectRatio="xMidYMid meet">
<metadata>
Created by potrace 1.14, written by Peter Selinger 2001-2017
</metadata>
<g transform="translate(0.000000,476.000000) scale(0.100000,-0.100000)"
fill="#000000" stroke="none">
<path d="M2023 4734 c-131 -17 -351 -71 -478 -119 -331 -123 -611 -309 -876
-582 -367 -379 -573 -793 -646 -1298 -12 -85 -17 -186 -17 -350 0 -243 9 -340
50 -534 141 -662 625 -1280 1252 -1600 282 -143 552 -215 910 -243 310 -24
707 33 997 142 210 78 461 223 650 374 96 78 284 265 362 361 165 204 332 502
402 712 202 612 160 1299 -112 1838 -187 372 -508 729 -863 958 -279 180 -598
297 -934 343 -133 17 -555 17 -697 -2z m667 -54 c501 -61 952 -287 1336 -668
169 -168 308 -355 418 -563 226 -427 304 -975 215 -1499 -115 -676 -572 -1293
-1209 -1632 -488 -260 -1123 -326 -1690 -177 -778 206 -1444 882 -1633 1659
-49 200 -61 316 -61 570 0 252 13 382 59 575 151 639 624 1220 1240 1526 207
103 484 186 691 208 116 12 536 13 634 1z"/>
<path d="M1597 3459 c-70 -16 -151 -62 -203 -114 -108 -108 -148 -209 -142
-355 8 -156 62 -258 186 -352 90 -68 172 -91 305 -86 90 3 110 8 169 36 291
141 362 501 146 737 -90 99 -201 146 -341 144 -45 -1 -99 -5 -120 -10z"/>
<path d="M2987 3459 c-70 -16 -151 -62 -203 -114 -108 -107 -148 -208 -142
-355 3 -84 8 -104 40 -171 80 -171 238 -269 430 -269 136 0 252 52 347 156
162 177 159 436 -7 616 -96 103 -203 149 -345 147 -45 -1 -99 -5 -120 -10z"/>
<path d="M2247 1610 c-209 -38 -398 -143 -591 -329 -138 -134 -216 -226 -216
-256 0 -28 39 -59 62 -50 8 3 51 48 97 100 201 232 434 387 635 424 82 15 218
13 297 -3 191 -41 424 -199 617 -417 47 -54 92 -101 100 -104 23 -9 62 23 62
50 0 51 -253 307 -410 415 -172 117 -316 169 -495 175 -60 2 -132 0 -158 -5z"/>
</g>
</svg>
